<svg viewBox="0 0 1024 1024" version="1.1" xmlns="http://www.w3.org/2000/svg">
  <path fill="#FB7299" transform="scale(1.2) translate(-85, -85)" d="M777.5 322.2h-140.2l49-62.8c4.3-5.6 3.3-13.6-2.3-17.9-5.6-4.3-13.6-3.3-17.9 2.3L597.6 331c-17.7 22.8-54.6 23.4-73.1 1.2l-71.5-85.8c-4.4-5.2-12.2-6-17.4-1.6-5.2 4.4-6 12.2-1.6 17.4l49.8 59.8H343.6c-48.4 0-87.7 39.3-87.7 87.7v315.7c0 48.4 39.3 87.7 87.7 87.7h433.9c48.4 0 87.7-39.3 87.7-87.7V409.9c0-48.4-39.3-87.7-87.7-87.7z m-350.8 280.6c-24.2 0-43.9-19.7-43.9-43.9s19.7-43.9 43.9-43.9 43.9 19.7 43.9 43.9-19.7 43.9-43.9 43.9z m263.2 0c-24.2 0-43.9-19.7-43.9-43.9s19.7-43.9 43.9-43.9 43.9 19.7 43.9 43.9-19.7 43.9-43.9 43.9z" />
</svg>